<svg xmlns="http://www.w3.org/2000/svg" width="375" viewBox="0 0 375 375" height="375" version="1.0"><defs><clipPath id="a"><path d="M 2 5.453125 L 375 5.453125 L 375 369 L 2 369 Z M 2 5.453125"/></clipPath></defs><g clip-path="url(#a)"><path fill="#C2DA8B" d="M 230.898438 192.878906 C 245.09375 193.425781 246.734375 203.789062 246.734375 203.789062 L 212.335938 203.789062 C 212.328125 203.789062 216.699219 192.332031 230.898438 192.878906 Z M 374.949219 206.933594 C 374.949219 208.359375 373.785156 209.511719 372.359375 209.511719 L 351.589844 209.472656 L 351.589844 356.453125 C 356.476562 358.507812 363.214844 361.394531 365.289062 362.503906 C 368.65625 364.300781 366.410156 367.210938 366.410156 367.210938 L 351.597656 367.210938 L 351.597656 367.4375 L 307.59375 367.4375 C 307.59375 367.4375 306.242188 364.070312 310.515625 362.054688 C 312.972656 360.894531 317.953125 358.46875 321.738281 356.621094 L 321.738281 209.421875 L 191.710938 209.179688 L 241.582031 280.777344 L 239.683594 281.730469 C 240.214844 282.359375 245.269531 288.289062 249.847656 293.492188 C 250.703125 294.460938 251.539062 295.410156 252.328125 296.289062 C 252.367188 296.332031 252.402344 296.371094 252.441406 296.417969 C 252.667969 296.667969 252.890625 296.910156 253.101562 297.152344 C 253.132812 297.191406 253.167969 297.21875 253.199219 297.257812 C 253.441406 297.523438 253.679688 297.78125 253.90625 298.03125 C 253.929688 298.054688 253.953125 298.085938 253.972656 298.105469 C 254.164062 298.320312 254.351562 298.515625 254.535156 298.714844 C 254.597656 298.773438 254.648438 298.84375 254.710938 298.902344 C 254.761719 298.964844 254.816406 299.015625 254.871094 299.070312 C 255.234375 298.0625 256.386719 297.484375 257.464844 297.910156 C 261.746094 299.585938 269.839844 302.679688 274.523438 303.960938 C 281.109375 305.757812 281.710938 304.558594 288.296875 305.15625 C 294.882812 305.757812 298.175781 309.496094 291.589844 312.035156 C 285.003906 314.574219 258.207031 325.640625 253.125 328.039062 C 248.03125 330.433594 237.257812 317.121094 237.257812 317.121094 C 237.257812 317.121094 237.292969 317.113281 237.332031 317.105469 L 226.785156 306.742188 L 214.355469 294.527344 L 213.164062 295.136719 L 192.804688 275.394531 L 169.152344 315.171875 L 165.386719 314.164062 C 165.007812 314.753906 157.5625 326.308594 153.109375 334.003906 C 152.777344 334.574219 152.464844 335.125 152.167969 335.648438 C 152.152344 335.679688 152.136719 335.703125 152.121094 335.734375 C 151.84375 336.234375 151.578125 336.710938 151.339844 337.160156 C 151.320312 337.195312 151.304688 337.234375 151.28125 337.273438 C 151.046875 337.703125 150.839844 338.105469 150.660156 338.46875 C 150.644531 338.5 150.628906 338.53125 150.613281 338.5625 C 150.429688 338.925781 150.269531 339.265625 150.148438 339.546875 C 148.949219 342.34375 148.617188 344.34375 148.554688 345.625 C 149.761719 345.496094 151.007812 346.148438 151.605469 347.273438 C 152.617188 349.160156 155.316406 352.796875 162.132812 356.148438 C 171.859375 360.933594 178 363.175781 176.953125 366.171875 C 175.90625 369.167969 171.414062 368.710938 167.824219 368.710938 C 164.234375 368.710938 127.855469 368.710938 121.269531 368.710938 C 115.683594 368.710938 119.347656 355.605469 120.601562 351.609375 C 120.730469 351.183594 121.101562 350.910156 121.503906 350.867188 L 127.976562 333.964844 L 138.328125 306.953125 L 152.488281 310.707031 L 136.832031 306.507812 L 152.519531 266 L 156.289062 256.257812 C 156.289062 256.257812 143.738281 256.257812 127.121094 256.257812 C 127.269531 256.742188 127.429688 257.238281 127.550781 257.753906 C 127.550781 257.753906 101.859375 257.753906 71.269531 257.753906 L 71.269531 347.703125 L 95.847656 347.703125 C 98.472656 347.703125 100.605469 349.835938 100.605469 352.457031 L 100.605469 355.332031 L 95.832031 355.332031 C 98.246094 356.453125 99.9375 358.886719 99.9375 361.722656 C 99.9375 365.625 96.773438 368.789062 92.867188 368.789062 C 88.957031 368.789062 85.792969 365.625 85.792969 361.722656 C 85.792969 358.886719 87.476562 356.453125 89.898438 355.332031 L 67.066406 355.332031 C 69.476562 356.453125 71.171875 358.886719 71.171875 361.722656 C 71.171875 365.625 68.007812 368.789062 64.097656 368.789062 C 60.191406 368.789062 57.027344 365.625 57.027344 361.722656 C 57.027344 358.886719 58.710938 356.453125 61.132812 355.332031 L 38.328125 355.332031 C 40.742188 356.453125 42.433594 358.886719 42.433594 361.722656 C 42.433594 365.625 39.269531 368.789062 35.359375 368.789062 C 31.453125 368.789062 28.289062 365.625 28.289062 361.722656 C 28.289062 358.886719 29.972656 356.453125 32.394531 355.332031 L 27.164062 355.332031 L 27.164062 352.457031 C 27.164062 349.835938 29.296875 347.703125 31.921875 347.703125 L 55.976562 347.703125 L 55.976562 257.746094 C 53.984375 257.746094 51.988281 257.746094 49.992188 257.746094 C 11.070312 257.746094 0 227.238281 2.691406 200.621094 C 2.691406 200.621094 6.320312 200.621094 17.019531 200.621094 C 8.832031 184.320312 10.234375 163.585938 16.835938 152.992188 C 24.242188 141.105469 50.292969 100.28125 50.292969 100.28125 C 50.292969 100.28125 45.582031 80.539062 45.582031 77.402344 C 45.582031 74.261719 46.933594 72.464844 49.847656 73.140625 C 52.761719 73.816406 67.132812 77.628906 77.011719 80.996094 C 81.382812 82.480469 84.296875 83.398438 87.089844 84.445312 C 88.183594 82.199219 89.335938 79.484375 90.21875 76.589844 C 88.609375 76.371094 87.097656 76.140625 85.769531 75.90625 C 77.386719 74.414062 70.65625 64.390625 76.9375 49.441406 C 83.21875 34.492188 88.761719 26.113281 103.132812 26.410156 C 117.503906 26.703125 122.140625 30.296875 122.894531 35.832031 L 122.171875 36.308594 C 124.507812 41.351562 124.046875 48.394531 123.953125 49.539062 L 125.351562 49.835938 L 126.261719 45.269531 C 126.335938 44.898438 126.695312 44.664062 127.058594 44.742188 C 127.421875 44.816406 127.664062 45.171875 127.589844 45.535156 L 126.179688 52.570312 C 126.863281 53.472656 127.542969 54.40625 127.96875 55.089844 C 129.09375 56.886719 130.214844 57.105469 128.53125 58.113281 C 126.847656 59.121094 124.828125 60.917969 124.828125 60.917969 C 123.476562 68.546875 120.78125 74.488281 116.070312 75.382812 C 113.261719 75.914062 111.351562 76.773438 110.203125 77.660156 C 110.136719 77.96875 110.097656 78.28125 110.015625 78.597656 C 110.015625 78.597656 109.765625 78.582031 109.316406 78.546875 C 109.097656 78.847656 108.945312 79.144531 108.898438 79.425781 C 108.734375 80.402344 106.070312 88.660156 104.636719 93.054688 C 111.714844 96.890625 118.058594 101.070312 125.648438 113.34375 L 125.648438 66.226562 L 286.757812 66.226562 C 286.839844 65.945312 287.089844 65.734375 287.402344 65.734375 C 287.710938 65.734375 287.960938 65.945312 288.046875 66.226562 L 288.207031 66.226562 L 288.207031 31.191406 L 372.316406 5.453125 L 372.316406 178.96875 L 180.957031 178.96875 C 178.789062 185.265625 175.875 191.226562 170.402344 197.183594 C 166.933594 200.96875 162.070312 203.304688 156.851562 204.363281 L 255.726562 204.363281 L 255.726562 202.121094 L 277.710938 202.121094 C 278.113281 202.121094 278.5 202.074219 278.871094 201.984375 C 278.941406 201.671875 279.199219 201.4375 279.523438 201.4375 L 280.167969 201.4375 C 281.996094 200.382812 283.066406 198.230469 282.523438 195.996094 L 278.394531 179.011719 L 312.070312 179.011719 L 316.023438 198.421875 C 316.644531 201.492188 314.300781 204.363281 311.167969 204.363281 L 372.359375 204.363281 C 373.792969 204.355469 374.949219 205.515625 374.949219 206.933594 Z M 96.089844 208.996094 C 96.089844 208.996094 99.011719 206.828125 100.804688 204.363281 L 143.753906 204.363281 C 138.472656 203.296875 133.667969 200.960938 130.433594 197.414062 C 121.449219 187.542969 112.703125 177.003906 112.703125 177.003906 C 112.703125 177.003906 112.027344 179.46875 109.78125 188.445312 C 109.726562 188.640625 109.660156 188.851562 109.597656 189.058594 C 107.867188 195.230469 102.753906 203.460938 96.007812 209.011719 Z M 96.089844 208.996094"/></g><path fill="#DF8E63" d="M 124.828125 60.910156 C 123.476562 68.539062 120.78125 74.480469 116.070312 75.375 C 111.359375 76.269531 109.113281 78.066406 108.882812 79.417969 C 108.65625 80.765625 103.71875 95.792969 103.71875 95.792969 L 83.84375 90.296875 C 83.84375 90.296875 88.449219 83.230469 90.582031 75.269531 C 92.714844 67.308594 81.148438 56.992188 85.976562 41.738281 C 90.800781 26.484375 108.429688 28.949219 116.957031 31.421875 C 125.488281 33.890625 123.917969 49.699219 123.917969 49.699219 C 123.917969 49.699219 126.839844 53.285156 127.960938 55.082031 C 129.085938 56.878906 130.207031 57.097656 128.523438 58.105469 C 126.855469 59.113281 124.828125 60.910156 124.828125 60.910156 Z M 206.105469 100.730469 C 206.105469 100.730469 207.003906 98.039062 204.613281 98.789062 C 202.214844 99.539062 199.976562 100.136719 196.082031 101.628906 C 192.191406 103.125 187.402344 105.367188 186.203125 106.566406 C 185.003906 107.765625 176.171875 120.324219 176.171875 120.324219 L 190.085938 127.953125 C 192.628906 127.355469 196.074219 123.910156 196.074219 123.910156 C 196.074219 123.910156 198.167969 124.359375 198.769531 123.3125 C 199.367188 122.265625 199.519531 120.917969 201.015625 117.179688 C 202.511719 113.441406 200.566406 109.402344 200.566406 109.402344 C 200.566406 109.402344 205.507812 104.914062 207.003906 103.125 C 208.503906 101.328125 206.105469 100.730469 206.105469 100.730469 Z M 255.804688 300.070312 C 251.460938 295.582031 239.640625 281.679688 239.640625 281.679688 L 214.195312 294.390625 L 240.6875 320.410156 C 240.6875 320.402344 260.144531 304.550781 255.804688 300.070312 Z M 120.933594 352.261719 C 120.933594 352.261719 122.132812 354.503906 131.710938 355.996094 C 141.285156 357.492188 148.625 347.324219 148.625 347.324219 C 148.625 347.324219 147.875 344.785156 150.121094 339.546875 C 152.367188 334.316406 165.386719 314.125 165.386719 314.125 L 138.296875 306.945312 Z M 120.933594 352.261719"/><path fill="#FF254C" d="M 176.019531 119.347656 L 193.53125 128.542969 C 193.53125 128.542969 189.488281 150.074219 185.671875 162.863281 C 181.855469 175.65625 180.285156 186.417969 170.402344 197.183594 C 160.523438 207.949219 139.421875 207.277344 130.433594 197.414062 C 121.449219 187.542969 112.703125 177.003906 112.703125 177.003906 C 112.703125 177.003906 112.027344 179.46875 109.78125 188.445312 C 107.535156 197.421875 97.652344 211.324219 85.984375 214.464844 C 74.304688 217.601562 63.757812 220.519531 60.835938 220.742188 L 33.667969 223.203125 C 33.667969 223.203125 32.316406 223.203125 20.417969 206.382812 C 8.519531 189.558594 9.417969 164.882812 16.828125 152.992188 C 24.234375 141.105469 50.289062 100.28125 50.289062 100.28125 C 50.289062 100.28125 45.574219 80.539062 45.574219 77.402344 C 45.574219 74.261719 46.925781 72.464844 49.839844 73.140625 C 52.753906 73.816406 67.125 77.628906 77.003906 80.996094 C 86.886719 84.359375 89.351562 84.808594 99.679688 90.417969 C 110.007812 96.027344 118.089844 98.9375 129.09375 119.355469 C 140.09375 139.765625 154.460938 167.359375 154.460938 167.359375 C 154.460938 167.359375 166.804688 132.59375 168.605469 127.429688 C 170.410156 122.257812 176.019531 119.347656 176.019531 119.347656 Z M 255.804688 300.070312 C 254.390625 298.609375 252.183594 296.152344 249.847656 293.496094 C 243.523438 297.144531 231.703125 303.945312 226.769531 306.742188 L 240.6875 320.410156 C 240.6875 320.402344 260.144531 304.550781 255.804688 300.070312 Z M 127.945312 333.960938 L 120.933594 352.253906 C 120.933594 352.253906 122.132812 354.496094 131.710938 355.992188 C 141.285156 357.484375 148.625 347.316406 148.625 347.316406 C 148.625 347.316406 147.875 344.777344 150.121094 339.539062 C 150.636719 338.339844 151.722656 336.347656 153.085938 333.996094 C 147.363281 333.972656 133.628906 333.921875 127.945312 333.960938 Z M 127.945312 333.960938"/><path fill="#2245B3" d="M 100.582031 352.449219 L 100.582031 355.324219 L 95.808594 355.324219 C 98.222656 356.445312 99.914062 358.878906 99.914062 361.714844 C 99.914062 365.617188 96.75 368.78125 92.84375 368.78125 C 88.933594 368.78125 85.769531 365.617188 85.769531 361.714844 C 85.769531 358.878906 87.453125 356.445312 89.875 355.324219 L 67.066406 355.324219 C 69.476562 356.445312 71.171875 358.878906 71.171875 361.714844 C 71.171875 365.617188 68.007812 368.78125 64.097656 368.78125 C 60.191406 368.78125 57.027344 365.617188 57.027344 361.714844 C 57.027344 358.878906 58.710938 356.445312 61.132812 355.324219 L 38.328125 355.324219 C 40.742188 356.445312 42.433594 358.878906 42.433594 361.714844 C 42.433594 365.617188 39.269531 368.78125 35.359375 368.78125 C 31.453125 368.78125 28.289062 365.617188 28.289062 361.714844 C 28.289062 358.878906 29.972656 356.445312 32.394531 355.324219 L 27.164062 355.324219 L 27.164062 352.449219 C 27.164062 349.828125 29.296875 347.695312 31.921875 347.695312 L 55.976562 347.695312 L 55.976562 257.746094 C 53.984375 257.746094 51.988281 257.746094 49.992188 257.746094 C 11.070312 257.746094 0 227.238281 2.691406 200.621094 C 2.691406 200.621094 8.082031 200.621094 25.148438 200.621094 C 42.214844 200.621094 63.164062 209.890625 77.234375 225.742188 C 91.300781 241.597656 122.140625 235.613281 127.527344 257.746094 C 127.527344 257.746094 101.835938 257.746094 71.246094 257.746094 L 71.246094 347.695312 L 95.824219 347.695312 C 98.449219 347.695312 100.582031 349.828125 100.582031 352.449219 Z M 288.28125 305.148438 C 281.695312 304.550781 281.09375 305.75 274.507812 303.953125 C 269.824219 302.679688 261.730469 299.585938 257.449219 297.902344 C 256.183594 297.402344 254.785156 298.289062 254.734375 299.652344 C 254.632812 302.195312 253.972656 306.023438 251.3125 309.488281 C 246.816406 315.316406 237.242188 317.113281 237.242188 317.113281 C 237.242188 317.113281 248.015625 330.425781 253.109375 328.03125 C 258.199219 325.636719 284.988281 314.574219 291.574219 312.027344 C 298.160156 309.488281 294.867188 305.75 288.28125 305.148438 Z M 162.101562 356.148438 C 155.296875 352.796875 152.585938 349.160156 151.578125 347.273438 C 150.816406 345.855469 149.019531 345.164062 147.585938 345.898438 C 145.710938 346.863281 145.492188 349.570312 145.492188 349.570312 C 145.492188 349.570312 141.75 353.011719 133.515625 352.859375 C 127.636719 352.753906 123.734375 351.578125 121.988281 350.910156 C 121.40625 350.691406 120.753906 351.007812 120.570312 351.609375 C 119.324219 355.605469 115.660156 368.710938 121.238281 368.710938 C 127.824219 368.710938 164.195312 368.710938 167.792969 368.710938 C 171.390625 368.710938 175.875 369.160156 176.921875 366.171875 C 177.96875 363.175781 171.828125 360.933594 162.101562 356.148438 Z M 275.257812 166.230469 L 199.824219 166.230469 C 199.445312 166.230469 199.140625 165.925781 199.140625 165.546875 L 199.140625 132.351562 C 199.140625 131.972656 199.445312 131.667969 199.824219 131.667969 L 275.257812 131.667969 C 275.640625 131.667969 275.941406 131.972656 275.941406 132.351562 L 275.941406 165.546875 C 275.941406 165.925781 275.632812 166.230469 275.257812 166.230469 Z M 200.5 133.03125 L 200.5 156.300781 C 203.609375 153.152344 213.140625 144.488281 223.089844 145.511719 C 227.253906 145.9375 231.519531 148.132812 235.65625 150.257812 C 243.472656 154.273438 250.847656 158.066406 257.546875 150.808594 C 267.496094 140.046875 273.46875 138.792969 274.585938 138.648438 L 274.585938 133.03125 Z M 274.578125 164.875 L 274.578125 140.03125 C 273.339844 140.265625 267.703125 141.828125 258.542969 151.734375 C 251.144531 159.75 242.949219 155.535156 235.027344 151.460938 C 231.011719 149.398438 226.851562 147.261719 222.945312 146.859375 C 211.917969 145.714844 200.9375 157.777344 200.492188 158.277344 L 200.492188 164.875 Z M 199.816406 100.660156 C 199.855469 100.660156 199.890625 100.660156 199.9375 100.652344 C 200.300781 100.585938 200.550781 100.234375 200.492188 99.863281 C 200.492188 99.847656 200.300781 98.695312 200.917969 97.894531 C 201.28125 97.414062 201.894531 97.144531 202.722656 97.066406 C 206.039062 96.777344 207.527344 96.914062 207.535156 96.914062 C 207.667969 96.929688 207.792969 96.890625 207.898438 96.839844 L 207.898438 111.980469 C 203.753906 111.980469 202.136719 108.925781 202.070312 108.796875 C 201.902344 108.460938 201.492188 108.332031 201.160156 108.5 C 200.824219 108.667969 200.6875 109.074219 200.855469 109.410156 C 200.9375 109.566406 202.898438 113.335938 207.898438 113.335938 C 207.921875 113.335938 207.941406 113.328125 207.964844 113.320312 C 208.300781 116.40625 210.886719 118.816406 214.066406 118.816406 L 221.03125 118.816406 C 224.441406 118.816406 227.203125 116.058594 227.203125 112.652344 L 227.203125 94.945312 C 227.203125 94.003906 226.445312 93.238281 225.503906 93.238281 L 209.613281 93.117188 C 208.664062 93.109375 207.890625 93.875 207.890625 94.824219 L 207.890625 95.632812 C 207.820312 95.597656 207.746094 95.574219 207.664062 95.566406 C 207.601562 95.558594 206.0625 95.414062 202.59375 95.71875 C 201.355469 95.824219 200.421875 96.285156 199.816406 97.082031 C 198.835938 98.363281 199.125 100.039062 199.140625 100.105469 C 199.207031 100.433594 199.496094 100.660156 199.816406 100.660156 Z M 181.4375 101.859375 C 181.4375 112.457031 172.808594 121.085938 162.191406 121.085938 C 151.578125 121.085938 142.949219 112.464844 142.949219 101.859375 C 142.949219 91.25 151.578125 82.632812 162.191406 82.632812 C 172.808594 82.632812 181.4375 91.25 181.4375 101.859375 Z M 180.078125 101.859375 C 180.078125 92.238281 172.421875 84.390625 162.875 84.027344 L 162.875 101.175781 L 179.023438 101.175781 C 179.402344 101.175781 179.707031 101.480469 179.707031 101.859375 C 179.707031 102.238281 179.402344 102.539062 179.023438 102.539062 L 162.199219 102.539062 C 161.820312 102.539062 161.515625 102.238281 161.515625 101.859375 L 161.515625 84.027344 C 151.972656 84.390625 144.316406 92.238281 144.316406 101.859375 C 144.316406 111.707031 152.335938 119.71875 162.191406 119.71875 C 172.050781 119.71875 180.078125 111.707031 180.078125 101.859375 Z M 352.34375 32.6875 L 352.34375 145.292969 L 299.65625 145.292969 L 299.953125 47.339844 Z M 340.976562 62.421875 L 329.59375 71.925781 L 338.5625 86.179688 C 340.867188 82.5625 342.324219 77.394531 342.324219 71.640625 C 342.316406 68.3125 341.824219 65.179688 340.976562 62.421875 Z M 318.96875 71.640625 C 318.96875 82.578125 324.195312 91.457031 330.648438 91.457031 C 333.304688 91.457031 335.746094 89.933594 337.710938 87.394531 L 328.128906 72.15625 C 327.945312 71.867188 328.007812 71.488281 328.265625 71.273438 L 340.503906 61.054688 C 338.433594 55.519531 334.796875 51.835938 330.648438 51.835938 C 324.195312 51.828125 318.96875 60.699219 318.96875 71.640625 Z M 307.738281 95.042969 L 311.183594 95.042969 L 311.183594 54.96875 L 308.042969 55.863281 Z M 342.765625 100.128906 C 342.765625 100.128906 323.757812 121.515625 323.453125 121.964844 C 323.15625 122.410156 315.972656 116.582031 315.972656 116.582031 L 309.535156 122.859375 L 309.238281 132.878906 L 342.765625 132.878906 Z M 312.078125 179.011719 L 278.402344 179.011719 L 282.527344 195.996094 C 283.289062 199.109375 280.921875 202.121094 277.710938 202.121094 L 255.726562 202.121094 L 255.726562 204.363281 L 311.175781 204.363281 C 314.308594 204.363281 316.660156 201.492188 316.03125 198.421875 Z M 312.078125 179.011719"/><path fill="#202020" d="M 369.324219 178.195312 L 369.324219 8.910156 C 369.324219 8.53125 369.628906 8.230469 370.007812 8.230469 C 370.386719 8.230469 370.691406 8.53125 370.691406 8.910156 L 370.691406 178.195312 C 370.691406 178.574219 370.386719 178.875 370.007812 178.875 C 369.628906 178.875 369.324219 178.566406 369.324219 178.195312 Z M 85.761719 75.90625 C 94.148438 77.402344 110.007812 78.597656 110.007812 78.597656 C 112.851562 67.832031 104.171875 60.949219 104.171875 60.949219 C 98.183594 61.246094 93.84375 56.910156 96.242188 51.382812 C 98.640625 45.847656 106.121094 46.75 106.121094 46.75 L 107.320312 50.789062 C 108.566406 50.085938 109.566406 49.113281 110.363281 48.078125 L 125.085938 51.167969 L 123.871094 57.242188 C 123.796875 57.613281 124.039062 57.96875 124.402344 58.039062 C 124.449219 58.046875 124.492188 58.054688 124.539062 58.054688 C 124.859375 58.054688 125.140625 57.832031 125.207031 57.507812 L 127.605469 45.542969 C 127.679688 45.171875 127.4375 44.816406 127.074219 44.75 C 126.703125 44.671875 126.34375 44.914062 126.277344 45.277344 L 125.367188 49.84375 L 111.222656 46.871094 C 112.664062 44.535156 113.171875 42.269531 113.171875 42.269531 L 122.898438 35.839844 C 122.148438 30.304688 117.511719 26.71875 103.140625 26.417969 C 88.769531 26.121094 83.234375 34.492188 76.945312 49.449219 C 70.65625 64.40625 77.378906 74.40625 85.761719 75.90625 Z M 123.78125 52.277344 C 123.78125 51.699219 123.308594 51.230469 122.734375 51.230469 C 122.15625 51.230469 121.6875 51.699219 121.6875 52.277344 C 121.6875 52.851562 122.15625 53.324219 122.734375 53.324219 C 123.308594 53.324219 123.78125 52.851562 123.78125 52.277344 Z M 117.496094 46.53125 C 117.214844 46.773438 117.1875 47.203125 117.429688 47.484375 C 117.566406 47.636719 117.753906 47.71875 117.945312 47.71875 C 118.105469 47.71875 118.265625 47.667969 118.394531 47.554688 C 118.414062 47.539062 120.402344 45.847656 123.179688 46.507812 C 123.554688 46.597656 123.910156 46.371094 124 46.007812 C 124.085938 45.644531 123.863281 45.277344 123.5 45.1875 C 120.046875 44.371094 117.605469 46.4375 117.496094 46.53125 Z M 118.644531 60.699219 C 118.421875 60.394531 118 60.328125 117.695312 60.554688 C 117.390625 60.773438 117.332031 61.199219 117.550781 61.503906 C 117.625 61.609375 119.449219 64.019531 123.1875 64.019531 C 123.566406 64.019531 123.871094 63.714844 123.871094 63.335938 C 123.871094 62.957031 123.566406 62.65625 123.1875 62.65625 C 120.167969 62.664062 118.710938 60.789062 118.644531 60.699219 Z M 104.332031 56.378906 C 104.460938 56.492188 104.621094 56.542969 104.773438 56.542969 C 104.960938 56.542969 105.152344 56.460938 105.289062 56.308594 C 105.53125 56.023438 105.5 55.597656 105.210938 55.355469 C 104.378906 54.640625 104.535156 54.132812 104.792969 53.292969 C 105.015625 52.578125 105.308594 51.601562 104.558594 50.660156 C 103.035156 48.757812 99.960938 50.265625 99.832031 50.328125 C 99.496094 50.496094 99.359375 50.90625 99.527344 51.238281 C 99.695312 51.570312 100.105469 51.707031 100.4375 51.542969 C 100.460938 51.535156 102.667969 50.480469 103.496094 51.503906 C 103.777344 51.851562 103.71875 52.164062 103.496094 52.890625 C 103.222656 53.761719 102.820312 55.089844 104.332031 56.378906 Z M 196.824219 106.339844 C 196.933594 106.339844 197.039062 106.316406 197.136719 106.261719 L 205.816406 101.773438 C 206.152344 101.601562 206.28125 101.191406 206.105469 100.859375 C 205.933594 100.523438 205.523438 100.394531 205.1875 100.570312 L 196.507812 105.058594 C 196.171875 105.230469 196.042969 105.640625 196.21875 105.976562 C 196.339844 106.210938 196.582031 106.339844 196.824219 106.339844 Z M 372.367188 204.355469 L 100.804688 204.355469 C 99.003906 206.820312 96.089844 208.988281 96.089844 208.988281 L 321.738281 209.414062 L 321.738281 356.621094 C 317.953125 358.46875 312.964844 360.894531 310.515625 362.054688 C 306.25 364.070312 307.59375 367.4375 307.59375 367.4375 L 351.597656 367.4375 L 351.597656 367.210938 L 366.417969 367.210938 C 366.417969 367.210938 368.664062 364.292969 365.296875 362.503906 C 363.222656 361.394531 356.484375 358.515625 351.597656 356.453125 L 351.597656 209.472656 L 372.367188 209.511719 C 373.792969 209.511719 374.957031 208.359375 374.957031 206.933594 C 374.949219 205.515625 373.792969 204.355469 372.367188 204.355469 Z M 149.480469 222.035156 C 149.40625 221.863281 149.269531 221.726562 149.085938 221.664062 C 144.816406 220.097656 95.824219 211.027344 93.746094 210.640625 C 93.375 210.574219 93.023438 210.816406 92.957031 211.1875 C 92.886719 211.558594 93.132812 211.90625 93.503906 211.976562 C 94.003906 212.066406 142.707031 221.082031 148.359375 222.847656 C 149.535156 225.355469 159.011719 244.289062 191.042969 274.832031 C 191.171875 274.960938 191.347656 275.023438 191.515625 275.023438 C 191.695312 275.023438 191.871094 274.953125 192.007812 274.808594 C 192.265625 274.535156 192.257812 274.105469 191.984375 273.847656 C 157.941406 241.390625 149.558594 222.226562 149.480469 222.035156 Z M 287.386719 178.347656 C 287.765625 178.347656 288.070312 178.042969 288.070312 177.664062 L 288.070312 66.40625 C 288.070312 66.027344 287.765625 65.726562 287.386719 65.726562 C 287.007812 65.726562 286.703125 66.027344 286.703125 66.40625 L 286.703125 177.664062 C 286.703125 178.042969 287.007812 178.347656 287.386719 178.347656 Z M 279.523438 202.796875 L 309.382812 202.796875 C 309.765625 202.796875 310.066406 202.492188 310.066406 202.113281 C 310.066406 201.734375 309.765625 201.429688 309.382812 201.429688 L 279.523438 201.429688 C 279.144531 201.429688 278.839844 201.734375 278.839844 202.113281 C 278.847656 202.492188 279.152344 202.796875 279.523438 202.796875 Z M 109.605469 189.042969 C 109.660156 188.839844 109.734375 188.625 109.789062 188.429688 C 112.035156 179.453125 112.710938 176.988281 112.710938 176.988281 L 99.90625 162.804688 C 99.882812 162.546875 99.726562 162.320312 99.476562 162.21875 C 99.4375 162.207031 99.40625 162.210938 99.367188 162.207031 L 98.335938 161.058594 L 98.84375 162.320312 C 98.738281 162.394531 98.648438 162.492188 98.601562 162.621094 L 79.289062 214.210938 C 79.160156 214.5625 79.335938 214.957031 79.683594 215.085938 C 79.761719 215.113281 79.84375 215.128906 79.917969 215.128906 C 80.191406 215.128906 80.449219 214.964844 80.558594 214.691406 L 99.519531 164.015625 Z M 63.179688 114.945312 C 71.800781 114.945312 79.152344 108.765625 89.085938 100.417969 L 90.238281 99.453125 C 90.527344 99.210938 90.566406 98.789062 90.324219 98.5 C 90.082031 98.210938 89.65625 98.171875 89.367188 98.417969 L 88.214844 99.378906 C 77.871094 108.066406 70.394531 114.34375 61.578125 113.511719 C 52.792969 112.675781 50.976562 101.628906 50.960938 101.523438 C 50.902344 101.152344 50.558594 100.902344 50.1875 100.957031 C 49.816406 101.015625 49.566406 101.359375 49.621094 101.730469 C 49.632812 101.851562 51.609375 113.925781 61.449219 114.859375 C 62.035156 114.921875 62.609375 114.945312 63.179688 114.945312 Z M 152.488281 265.992188 C 159.035156 260.859375 166.367188 256.25 166.367188 256.25 L 156.265625 256.25 Z M 55.976562 267.359375 C 61.503906 264.128906 69.464844 259.285156 71.246094 258.199219 L 71.246094 257.972656 L 55.976562 257.972656 Z M 68.925781 347.46875 L 57.246094 347.46875 C 56.867188 347.46875 56.5625 347.773438 56.5625 348.152344 C 56.5625 348.53125 56.867188 348.832031 57.246094 348.832031 L 68.925781 348.832031 C 69.304688 348.832031 69.605469 348.53125 69.605469 348.152344 C 69.605469 347.773438 69.296875 347.46875 68.925781 347.46875 Z M 158.929688 179.058594 C 159.042969 179.316406 159.292969 179.46875 159.550781 179.46875 C 159.644531 179.46875 159.734375 179.453125 159.816406 179.414062 C 160.160156 179.261719 160.324219 178.867188 160.175781 178.519531 L 155.683594 168.050781 C 155.539062 167.703125 155.128906 167.542969 154.785156 167.695312 C 154.445312 167.84375 154.277344 168.238281 154.429688 168.589844 Z M 158.929688 179.058594"/></svg>