<svg xmlns="http://www.w3.org/2000/svg" width="375" viewBox="0 0 375 375" height="375" version="1.0"><defs><clipPath id="a"><path d="M 69.882812 23 L 289 23 L 289 341 L 69.882812 341 Z M 69.882812 23"/></clipPath><clipPath id="b"><path d="M 69.882812 27 L 289 27 L 289 341 L 69.882812 341 Z M 69.882812 27"/></clipPath><clipPath id="c"><path d="M 69.882812 157 L 233 157 L 233 341 L 69.882812 341 Z M 69.882812 157"/></clipPath><clipPath id="d"><path d="M 102 41 L 305.382812 41 L 305.382812 347 L 102 347 Z M 102 41"/></clipPath></defs><g clip-path="url(#a)"><path fill="#323738" d="M 288.816406 46.785156 L 256.492188 28.28125 C 255.078125 27.25 253.5625 26.378906 251.953125 25.675781 L 251.476562 25.40625 L 251.457031 25.449219 C 242.757812 21.914062 231.527344 23.191406 219.273438 30.261719 L 119.710938 87.699219 C 92.335938 103.496094 69.9375 142.273438 69.9375 173.863281 L 69.9375 288.753906 C 69.9375 304.160156 75.289062 315.085938 83.921875 320.449219 L 83.839844 320.597656 L 119.765625 340.941406 L 139.964844 305.789062 L 219.273438 260.03125 C 246.644531 244.238281 269.046875 205.460938 269.046875 173.867188 L 269.046875 81.1875 Z M 288.816406 46.785156"/></g><g clip-path="url(#b)"><path fill="#252B2D" d="M 288.816406 46.785156 L 254.21875 38.675781 C 252.800781 37.644531 245.738281 37.671875 244.125 36.96875 L 241.5625 35.941406 L 236.941406 35.085938 C 228.246094 31.554688 231.527344 23.191406 219.273438 30.257812 L 119.710938 87.699219 C 92.335938 103.496094 69.9375 142.273438 69.9375 173.863281 L 69.9375 288.753906 C 69.9375 304.160156 75.289062 315.085938 83.921875 320.449219 L 83.839844 320.597656 L 119.765625 340.941406 L 139.964844 305.789062 L 219.273438 260.03125 C 246.644531 244.238281 269.046875 205.460938 269.046875 173.867188 L 269.046875 81.1875 Z M 288.816406 46.785156"/></g><g clip-path="url(#c)"><path fill="#090C0C" d="M 71.839844 157.3125 C 70.632812 162.9375 69.945312 168.511719 69.945312 173.863281 L 69.945312 288.753906 C 69.945312 304.160156 75.296875 315.085938 83.929688 320.449219 L 83.847656 320.597656 L 119.773438 340.941406 L 139.972656 305.789062 L 219.28125 260.03125 C 223.929688 257.351562 228.425781 253.960938 232.699219 250.089844 Z M 71.839844 157.3125"/></g><path fill="#3B4142" d="M 153.933594 107.53125 C 126.558594 123.328125 104.15625 162.101562 104.15625 193.695312 L 104.15625 308.585938 C 104.15625 340.175781 126.558594 353.101562 153.933594 337.304688 L 253.492188 279.863281 C 280.867188 264.0625 303.269531 225.292969 303.269531 193.695312 L 303.269531 78.808594 C 303.269531 47.214844 280.867188 34.292969 253.492188 50.089844 Z M 153.933594 107.53125"/><path fill="#383E3F" d="M 303.265625 78.808594 C 303.265625 47.214844 280.863281 34.292969 253.488281 50.089844 L 153.933594 107.53125 C 126.558594 123.328125 104.15625 162.101562 104.15625 193.695312 L 104.15625 308.585938 C 104.15625 340.175781 126.558594 353.101562 153.933594 337.304688" fill-opacity=".2"/><path fill="#3B4142" d="M 104.84375 185.0625 L 302.589844 70.960938 C 302.90625 68.570312 303.101562 66.203125 303.1875 63.871094 L 104.242188 178.664062 C 104.328125 180.898438 104.53125 183.03125 104.84375 185.0625 Z M 104.84375 185.0625"/><g clip-path="url(#d)"><path fill="#4F5759" d="M 131.824219 346.097656 L 131.816406 346.097656 C 113.769531 346.097656 102.109375 331.371094 102.109375 308.585938 L 102.109375 193.695312 C 102.109375 161.367188 124.894531 121.917969 152.902344 105.753906 L 252.464844 48.3125 C 260.535156 43.652344 268.320312 41.296875 275.605469 41.296875 C 293.65625 41.296875 305.320312 56.023438 305.320312 78.808594 L 305.320312 193.695312 C 305.320312 226.027344 282.53125 265.476562 254.519531 281.636719 L 154.960938 339.082031 C 146.886719 343.734375 139.105469 346.097656 131.824219 346.097656 Z M 275.609375 45.394531 C 269.054688 45.394531 261.957031 47.566406 254.523438 51.855469 L 154.960938 109.296875 C 128.082031 124.8125 106.210938 162.667969 106.210938 193.6875 L 106.210938 308.578125 C 106.210938 329.183594 116.019531 341.984375 131.816406 341.984375 L 131.824219 341.984375 C 138.378906 341.984375 145.46875 339.8125 152.902344 335.523438 L 252.464844 278.082031 C 279.34375 262.570312 301.214844 224.710938 301.214844 193.691406 L 301.214844 78.800781 C 301.214844 58.195312 291.40625 45.394531 275.609375 45.394531 Z M 275.609375 45.394531"/></g><path fill="#FF4D8D" d="M 143.777344 139.757812 C 143.777344 137.109375 145.648438 133.859375 147.945312 132.539062 C 150.238281 131.21875 152.113281 132.296875 152.113281 134.945312 C 152.113281 137.59375 150.238281 140.839844 147.945312 142.164062 C 145.652344 143.484375 143.777344 142.402344 143.777344 139.757812 Z M 143.777344 139.757812"/><path fill="#EA2864" d="M 147.945312 142.164062 C 145.652344 143.480469 143.78125 142.402344 143.777344 139.757812 C 143.78125 137.109375 145.652344 133.859375 147.945312 132.539062"/><path fill="#F7D011" d="M 161.542969 129.605469 C 161.542969 126.957031 163.414062 123.714844 165.707031 122.390625 C 168.003906 121.066406 169.878906 122.148438 169.878906 124.796875 C 169.878906 127.441406 168.003906 130.6875 165.707031 132.011719 C 163.417969 133.335938 161.542969 132.253906 161.542969 129.605469 Z M 161.542969 129.605469"/><path fill="#F4B414" d="M 165.710938 132.011719 C 163.417969 133.335938 161.546875 132.253906 161.546875 129.605469 C 161.546875 126.957031 163.417969 123.714844 165.710938 122.390625"/><path fill="#15EAA8" d="M 179.304688 119.457031 C 179.304688 116.808594 181.183594 113.558594 183.472656 112.238281 C 185.769531 110.914062 187.640625 111.996094 187.640625 114.644531 C 187.640625 117.292969 185.765625 120.535156 183.472656 121.859375 C 181.183594 123.179688 179.304688 122.097656 179.304688 119.457031 Z M 179.304688 119.457031"/><path fill="#08C1B3" d="M 183.476562 121.859375 C 181.183594 123.179688 179.308594 122.101562 179.308594 119.457031 C 179.308594 116.808594 181.183594 113.558594 183.476562 112.238281"/><path fill="#FFF" d="M 195.359375 227.222656 C 194.09375 227.222656 192.808594 226.902344 191.632812 226.222656 L 152.828125 203.835938 C 149.257812 201.773438 148.039062 197.203125 150.09375 193.636719 C 152.15625 190.066406 156.71875 188.84375 160.300781 190.90625 L 199.101562 213.292969 C 202.675781 215.355469 203.898438 219.925781 201.835938 223.492188 C 200.453125 225.886719 197.945312 227.222656 195.359375 227.222656 Z M 195.359375 227.222656"/><path fill="#FFF" d="M 156.558594 294.390625 C 155.292969 294.390625 154.011719 294.066406 152.832031 293.390625 C 149.261719 291.332031 148.039062 286.765625 150.097656 283.195312 L 188.898438 216.019531 C 190.960938 212.449219 195.515625 211.226562 199.105469 213.289062 C 202.679688 215.347656 203.898438 219.914062 201.835938 223.484375 L 163.035156 290.65625 C 161.652344 293.054688 159.140625 294.390625 156.558594 294.390625 Z M 156.558594 294.390625"/><path fill="#FFF" d="M 208.316406 264.542969 C 205.734375 264.542969 203.222656 263.207031 201.835938 260.8125 C 199.78125 257.242188 201 252.675781 204.574219 250.613281 L 256.316406 220.761719 C 259.894531 218.691406 264.457031 219.925781 266.519531 223.492188 C 268.578125 227.066406 267.359375 231.628906 263.785156 233.691406 L 212.042969 263.546875 C 210.863281 264.222656 209.578125 264.542969 208.316406 264.542969 Z M 208.316406 264.542969"/></svg>